<svg xmlns="http://www.w3.org/2000/svg" width="21" height="28.277" viewBox="0 0 21 28.277">
  <g id="Group_2" data-name="Group 2" transform="translate(-818.143 -750.301)">
    <path id="Path_4" data-name="Path 4" d="M818.536,778.578a.73.73,0,0,1-.392-.751c.031-.7-.024-1.4.063-2.092a2.2,2.2,0,0,1,1.835-1.852.278.278,0,0,0,.264-.251A3.6,3.6,0,0,1,822.522,771a.567.567,0,0,0,.268-.243,20.655,20.655,0,0,0,2.149-8.957c0-.073,0-.145,0-.215a1.808,1.808,0,0,1-1.345-2.755c-.073-.048-.147-.1-.22-.147a2.7,2.7,0,0,1-1.245-2.3c-.011-1.776,0-3.551-.009-5.327a.748.748,0,0,1,.393-.75h2.541a.742.742,0,0,1,.393.751c-.018.828-.006,1.656-.006,2.484v.284h1.1v-.284c0-.828.013-1.657-.006-2.484a.74.74,0,0,1,.393-.751h3.424a.742.742,0,0,1,.393.751c-.018.828-.006,1.656-.006,2.484v.284h1.1v-.284c0-.828.012-1.657-.006-2.484a.74.74,0,0,1,.393-.751h2.541a.749.749,0,0,1,.393.751c-.013,1.628-.033,3.257,0,4.885a3,3,0,0,1-1.473,2.9,1.8,1.8,0,0,1,.092,1.732,1.828,1.828,0,0,1-1.485,1.013c.073.9.111,1.8.224,2.695a20.532,20.532,0,0,0,1.923,6.412.657.657,0,0,0,.364.338,3.572,3.572,0,0,1,2.166,2.607.278.278,0,0,0,.265.251,2.3,2.3,0,0,1,1.89,2.233c.01.57-.013,1.141.009,1.711a.736.736,0,0,1-.392.751Zm17.339-4.745a2.481,2.481,0,0,0-2.41-1.983c-3.212-.012-6.425-.006-9.637,0a2.409,2.409,0,0,0-1.375.432,2.525,2.525,0,0,0-1.063,1.552h4.557a2.388,2.388,0,0,1,.248,0,.551.551,0,0,1,.516.575.542.542,0,0,1-.537.523c-.082.005-.166,0-.248,0q-2.692,0-5.385,0a1.192,1.192,0,0,0-1.266,1.032c-.049.489-.01.986-.01,1.484h18.765c0-.395,0-.771,0-1.147a1.236,1.236,0,0,0-1.364-1.37h-5.329a2.209,2.209,0,0,1-.276-.007.554.554,0,0,1-.478-.5.535.535,0,0,1,.367-.555,1.181,1.181,0,0,1,.352-.043q2.126,0,4.253,0Zm-4.639-12.245h-5.188a22.117,22.117,0,0,1-2.01,9.142h9.208A22.106,22.106,0,0,1,831.236,761.587Zm-8.006-10.171c0,1.631,0,3.231,0,4.832a1.665,1.665,0,0,0,1.8,1.784h7.232a1.666,1.666,0,0,0,1.795-1.787q0-2.277,0-4.555c0-.089-.008-.178-.012-.265h-1.092c0,.949,0,1.877,0,2.806,0,.516-.187.707-.692.708q-.98,0-1.96,0c-.455,0-.66-.2-.661-.655,0-.7,0-1.4,0-2.1v-.761h-1.988c0,.958,0,1.9,0,2.834,0,.477-.2.678-.665.68q-.994,0-1.987,0c-.456,0-.659-.2-.661-.656,0-.718,0-1.435,0-2.153v-.714Zm5.414,9.046c1.159,0,2.318,0,3.477,0a.661.661,0,0,0,.723-.787.672.672,0,0,0-.755-.537h-6.9a1.118,1.118,0,0,0-.193.008.635.635,0,0,0-.531.427.562.562,0,0,0,.135.66,1.08,1.08,0,0,0,.592.22C826.345,760.474,827.495,760.463,828.645,760.463Z" transform="translate(0)" fill-rule="evenodd"/>
    <path id="Path_5" data-name="Path 5" d="M954.342,1070.4a.55.55,0,0,1-1.1,0,.55.55,0,1,1,1.1,0Z" transform="translate(-125.149 -296.016)" fill-rule="evenodd"/>
  </g>
</svg>
