<svg xmlns="http://www.w3.org/2000/svg" width="26" height="26.015" viewBox="0 0 26 26.015">
  <g id="Group_1" data-name="Group 1" transform="translate(383.293 -344.137)">
    <path id="Path_2" data-name="Path 2" d="M-337.051,547.377h-5.6a4.633,4.633,0,0,1-4.616-4.615q0-2.785,0-5.57a.919.919,0,0,1,.606-.9.84.84,0,0,1,1,.255,1.358,1.358,0,0,1,.244.714c.02,1.818.01,3.636.011,5.454a2.769,2.769,0,0,0,2.816,2.8q5.541,0,11.082,0a2.769,2.769,0,0,0,2.817-2.8q0-2.756,0-5.512a.931.931,0,0,1,.818-.967.925.925,0,0,1,1,.7,1.526,1.526,0,0,1,.033.373q0,2.741,0,5.483a4.634,4.634,0,0,1-4.615,4.588Q-334.252,547.379-337.051,547.377Z" transform="translate(-33.238 -177.225)" fill-rule="evenodd"/>
    <path id="Path_3" data-name="Path 3" d="M-370.332,346.355a2.411,2.411,0,0,1-.2.276q-5.525,5.533-11.051,11.065a.986.986,0,0,1-1.037.344.924.924,0,0,1-.443-1.495c.05-.059.107-.112.161-.167l11.837-11.837a.952.952,0,0,1,1.552-.006q5.94,5.939,11.878,11.879a.934.934,0,0,1-.336,1.633.942.942,0,0,1-.969-.3q-1.738-1.749-3.485-3.49l-7.67-7.675C-370.153,346.524-370.21,346.472-370.332,346.355Z" fill-rule="evenodd"/>
  </g>
</svg>
