<svg xmlns="http://www.w3.org/2000/svg" width="25.459" height="25.459" viewBox="0 0 25.459 25.459">
  <g id="Group_3" data-name="Group 3" transform="translate(-497.446 -724.83)">
    <path id="Path_6" data-name="Path 6" d="M497.446,738.305v-1.492c.015-.088.033-.175.045-.264.059-.451.093-.906.179-1.352a12.524,12.524,0,0,1,3.974-7.08,12.386,12.386,0,0,1,6.362-3.094c.471-.081.949-.13,1.423-.194h1.492c.08.015.16.033.242.044.467.062.939.1,1.4.187a12.714,12.714,0,0,1,10.147,10.333c.081.47.13.946.194,1.42v1.492c-.015.079-.033.158-.044.238-.059.459-.091.924-.179,1.378a12.726,12.726,0,0,1-10.339,10.174c-.471.081-.948.13-1.422.194h-1.492c-.08-.015-.16-.034-.241-.044-.46-.06-.923-.094-1.377-.18a12.722,12.722,0,0,1-10.172-10.339C497.558,739.255,497.51,738.779,497.446,738.305Zm14.734,6.922c0,.036-.009.073-.014.109,1.207-.151,2.412-.306,3.62-.446a.453.453,0,0,0,.388-.282q1.248-2.345,2.511-4.683a.382.382,0,0,0,0-.43c-.647-1.078-1.3-2.156-1.924-3.245a.5.5,0,0,0-.576-.276q-2.544.279-5.091.53a.347.347,0,0,0-.321.21q-.946,1.817-1.91,3.624a.363.363,0,0,0,.01.407c.769,1.315,1.544,2.626,2.283,3.958C511.39,745.128,511.618,745.441,512.18,745.228ZM511,735.7l.814-.083c1.5-.153,3-.3,4.495-.465a.331.331,0,0,0,.229-.171q.585-1.514,1.142-3.04a.331.331,0,0,0-.052-.277q-1.788-2.033-3.593-4.051a.4.4,0,0,0-.248-.13,24.628,24.628,0,0,0-4.106.282.278.278,0,0,0-.183.16q-.733,2.173-1.448,4.353a.287.287,0,0,0,.048.237q1.378,1.547,2.769,3.082A.71.71,0,0,0,511,735.7Zm-1.89,12.243a.878.878,0,0,0,.16-.142c.474-.639.938-1.284,1.417-1.919a.284.284,0,0,0,.02-.371q-1.221-2.091-2.423-4.192a.519.519,0,0,0-.4-.273q-2.071-.4-4.138-.82a.262.262,0,0,0-.338.133q-.985,1.566-1.99,3.121a.319.319,0,0,0-.015.38,18.924,18.924,0,0,0,1.969,2.95.476.476,0,0,0,.262.151c1.091.2,2.182.4,3.274.59Zm-8.985-15.539a1.04,1.04,0,0,0,.168.153c.831.5,1.667.984,2.5,1.484a.285.285,0,0,0,.354-.012,24.865,24.865,0,0,1,3.987-2.053.491.491,0,0,0,.251-.263c.444-1.306.872-2.619,1.313-3.926a.244.244,0,0,0-.114-.341,10.694,10.694,0,0,0-2.061-1.08.533.533,0,0,0-.416-.009,11.591,11.591,0,0,0-3.8,2.255,4.554,4.554,0,0,0-1.028,1.1c-.427.778-.733,1.624-1.087,2.442A2.133,2.133,0,0,0,500.125,732.407Zm-.494.7c-.354.586-.7,1.158-1.043,1.732a.535.535,0,0,0-.049.165,11.961,11.961,0,0,0,.147,5.7,2.308,2.308,0,0,0,.311.879A6.757,6.757,0,0,0,500.765,743c.06-.088.112-.161.16-.237.642-1,1.278-2.013,1.928-3.012a.661.661,0,0,0,.1-.535,9.651,9.651,0,0,1-.179-1.051c-.091-1.056-.16-2.113-.244-3.169a.319.319,0,0,0-.1-.223C501.51,734.219,500.591,733.677,499.631,733.109Zm17.563,14.054a11.7,11.7,0,0,0,4.835-8.551c-.754.415-1.542.846-2.327,1.283a.49.49,0,0,0-.183.186q-1.36,2.523-2.709,5.051a.363.363,0,0,0-.036.229C516.908,745.958,517.05,746.552,517.194,747.162Zm-2.525-20.651c.031.273-.107.48.082.692,1.177,1.315,2.345,2.639,3.52,3.956a.946.946,0,0,0,.277.195c.742.381,1.486.758,2.23,1.136.068.035.134.076.252.144A12.014,12.014,0,0,0,514.669,726.511Zm-4.146,22.91c-.428-.189-.856-.382-1.287-.566a2.065,2.065,0,0,0-.443-.146c-1.115-.2-2.232-.4-3.348-.6-.334-.058-.669-.113-1-.17A10.921,10.921,0,0,0,510.523,749.421Z" transform="translate(0 0)" fill-rule="evenodd"/>
  </g>
</svg>
