<svg xmlns="http://www.w3.org/2000/svg" width="30.484" height="19.804" viewBox="0 0 30.484 19.804">
  <g id="Group_4" data-name="Group 4" transform="translate(-52.699 -886.011)">
    <path id="Path_7" data-name="Path 7" d="M67.05,888.875c.327-.653.639-1.245.921-1.85a1.192,1.192,0,0,1,1.313-.753,16.162,16.162,0,0,1,13.344,8.689,3.319,3.319,0,0,1,.241,2.235,9.636,9.636,0,0,1-8.28,8.28,10.105,10.105,0,0,1-1.4.086q-8.409.008-16.818,0a1.122,1.122,0,0,1-1.3-1.013q-1.027-4.086-2.05-8.174c-.242-.965.211-1.537,1.214-1.537q4.757,0,9.515.006a.452.452,0,0,0,.478-.3q.781-1.61,1.6-3.2a.4.4,0,0,0-.016-.48c-.512-.745-1-1.5-1.518-2.247a.54.54,0,0,0-.366-.2c-.434-.025-.871,0-1.306-.011a1.071,1.071,0,1,1-.007-2.141c.681-.008,1.362,0,2.044,0a1.13,1.13,0,0,1,1.013.54C66.114,887.48,66.568,888.155,67.05,888.875Zm-10.06,14.545h.268c5.362,0,10.723.006,16.085-.009a8.1,8.1,0,0,0,1.691-.2A7.467,7.467,0,0,0,80.718,897H55.387l.53,2.129H68.771c.112,0,.224,0,.335,0a1.086,1.086,0,0,1,.98.946,1.055,1.055,0,0,1-.745,1.134,1.891,1.891,0,0,1-.528.058q-5.965,0-11.93,0h-.429Zm9.5-8.6H80.006c-.035-.066-.051-.107-.075-.142a14.177,14.177,0,0,0-9.988-6.2.337.337,0,0,0-.413.221c-.968,1.958-1.949,3.911-2.926,5.865C66.566,894.642,66.534,894.722,66.492,894.818Z" stroke="#00dfd7" stroke-width="0.5" fill-rule="evenodd"/>
  </g>
</svg>
